:SAMPLES-PER-SECOND 30
:FULLY-SPECIFIED
:DEGREES
1
root  34.82971792 36.55032661 -14.46817353 8.972507477 -4.931875706 3.093245029
lowerback  -8.361030579 -0.6808563471 -0.400318712
upperback  -3.808069944 -0.4545246363 -3.00583005
thorax  0.7268289924 -0.09095554799 -2.907860041
lowerneck  -7.699739933 -12.79969978 -9.778510094
upperneck  13.47239971 -17.40800095 9.902230263
head  7.115180016 -8.093429565 3.036560059
lclavicle  0 -4.497500157e-015 -2.743230041e-014
lhumerus  -48.19979858 29.25510025 64.59100342
lradius  0.006620147731 -6.507048965e-006 30.1916008
lwrist  4.824992743e-007 -3.790274832e-007 -28.09600067
lhand  -3.541078858e-031 -36.85710144 -10.38479996
lfingers  90 7.125020027 -90
lthumb  94.73460388 -25.22747421 100.9968491
rclavicle  0 -4.497500157e-015 -2.743230041e-014
rhumerus  -59.77410126 -43.31499863 -44.36949921
rradius  -5.16745672e-007 2.214343908e-008 34.46020126
rwrist  -2.867388866e-005 0.1017204151 -140.375
rhand  -3.018406318e-031 -2.854949951 -7.66711998
rfingers  -90 -7.125020027 -90
rthumb  -86.61206818 -7.981945038 -66.91036224
rfemur  -11.24487686 16.04904556 13.03686333
rtibia  -0.2879382372 -0.8011406064 18.82606316
rfoot  1.187427759 -21.48979187 -35.62533188
rtoes  4.138733864 19.58426476 -102.1819
lfemur  -6.497136116 -15.94829941 -20.59396744
ltibia  3.69519639 -0.2423269451 12.44211102
lfoot  0.5164880753 -23.73229408 36.59980774
ltoes  -8.726770401 -18.06454468 -116.3255386
2
root  34.83249935 36.55024851 -14.46822309 8.982393265 -4.945404053 3.093245029
lowerback  -8.349074364 -0.6808563471 -0.4190964401
upperback  -3.81449008 -0.4545246363 -3.010699987
thorax  0.7139260173 -0.09095554799 -2.907860041
lowerneck  -7.678140163 -12.82269955 -9.778510094
upperneck  13.4691 -17.44000244 9.90060997
head  7.114099979 -8.109950066 3.036560059
lclavicle  0 -4.497500157e-015 -2.743230041e-014
lhumerus  -48.18989944 29.24410057 64.59049988
lradius  0.006620147731 -6.507048965e-006 30.15570068
lwrist  4.824992743e-007 -3.790274832e-007 -28.11930084
lhand  -3.536459574e-031 -36.86159897 -10.43980026
lfingers  90 7.125020027 -90
lthumb  94.74829102 -25.28130341 101.0065842
rclavicle  0 -4.497500157e-015 -2.743230041e-014
rhumerus  -59.64970398 -43.1554985 -44.54999542
rradius  -5.16745672e-007 2.214343908e-008 34.53300095
rwrist  -2.867388866e-005 0.1017204151 -140.4470062
rhand  -3.022129482e-031 -2.975209951 -7.610770226
rfingers  -90 -7.125020027 -90
rthumb  -86.61159515 -8.027599335 -67.02436829
rfemur  -11.25620747 16.01259041 13.01755238
rtibia  -0.2856478989 -0.8334665895 18.82156944
rfoot  1.193997741 -21.54693031 -35.57863998
rtoes  4.186268806 19.57453918 -102.3237457
lfemur  -6.479175568 -15.93706226 -20.61157799
ltibia  3.722083569 -0.2134577483 12.39938164
lfoot  0.549126029 -23.78158379 36.67351532
ltoes  -8.726770401 -18.06454468 -116.3342743
3
root  34.83494135 36.55005628 -14.46834024 8.989955902 -4.950859547 3.096163034
lowerback  -8.345459938 -0.6808563471 -0.4412921667
upperback  -3.81972003 -0.4545246363 -3.020440102
thorax  0.7065079808 -0.09095554799 -2.907860041
lowerneck  -7.641540051 -12.84860039 -9.777420044
upperneck  13.44260025 -17.47879982 9.915180206
head  7.104499817 -8.129199982 3.038609982
lclavicle  0 -4.497500157e-015 -2.743230041e-014
lhumerus  -48.21580124 29.27370071 64.55269623
lradius  0.006620147731 -6.507048965e-006 30.15110016
lwrist  4.824992743e-007 -3.790274832e-007 -28.19219971
lhand  -3.531037873e-031 -36.84140015 -10.50790024
lfingers  90 7.125020027 -90
lthumb  94.75327301 -25.34888458 100.9911423
rclavicle  0 -4.497500157e-015 -2.743230041e-014
rhumerus  -59.47399902 -42.95489883 -44.8102951
rradius  -5.16745672e-007 2.214343908e-008 34.63150024
rwrist  -2.867388866e-005 0.1017204151 -140.5599976
rhand  -3.023995698e-031 -2.884380102 -7.58355999
rfingers  -90 -7.125020027 -90
rthumb  -86.58434296 -8.057315826 -66.9344635
rfemur  -11.29397583 16.02561569 13.02038288
rtibia  -0.2971431315 -0.7887106538 18.86984634
rfoot  1.200142741 -21.45420647 -35.54196167
rtoes  4.133481979 19.58533287 -102.1662292
lfemur  -6.438854694 -15.96851349 -20.63900375
ltibia  3.754574537 -0.229520753 12.33304024
lfoot  0.5431675911 -23.71055031 36.71066666
ltoes  -8.730317116 -18.06454468 -116.3457108
4
root  34.83572232 36.54982499 -14.4684754 9.011733055 -4.954702854 3.113879681
lowerback  -8.306569099 -0.6808563471 -0.4390760958
upperback  -3.833179951 -0.4545246363 -3.021460056
thorax  0.6713560224 -0.09095554799 -2.909329891
lowerneck  -7.583069801 -12.87170029 -9.81085968
upperneck  13.4052 -17.51059723 9.932359695
head  7.088294983 -8.148049355 3.0463624
lclavicle  0 -4.497500157e-015 -2.743230041e-014
lhumerus  -48.24689865 29.33160019 64.49990082
lradius  0.006620147731 -6.507048965e-006 30.14369965
lwrist  4.824992743e-007 -3.790274832e-007 -28.26609802
lhand  -3.539596488e-031 -36.8451004 -10.40429974
lfingers  90 7.125020027 -90
lthumb  94.7331543 -25.24698448 100.9857864
rclavicle  0 -4.497500157e-015 -2.743230041e-014
rhumerus  -59.34579849 -42.8064003 -44.97800064
rradius  -5.16745672e-007 2.214343908e-008 34.71960068
rwrist  -2.867388866e-005 0.1017204151 -140.6360016
rhand  -3.020280078e-031 -2.865639925 -7.639100075
rfingers  -90 -7.125020027 -90
rthumb  -86.60289764 -8.007206917 -66.91926575
rfemur  -11.3495636 16.05798149 13.00498772
rtibia  -0.3145408928 -0.7736330628 18.93244171
rfoot  1.171958685 -21.42728806 -35.56742096
rtoes  4.116659164 19.58874321 -102.1160507
lfemur  -6.406384945 -15.97380543 -20.68161583
ltibia  3.803601503 -0.2460623682 12.24086571
lfoot  0.5190874338 -23.62340546 36.68586731
ltoes  -8.709355354 -18.07439995 -116.2781296
5
root  34.83575836 36.54961173 -14.46857452 9.022687912 -4.944330215 3.109658241
lowerback  -8.28316021 -0.6808563471 -0.480968684
upperback  -3.851429939 -0.4517689943 -3.022959948
thorax  0.6396430135 -0.09095554799 -2.887680054
lowerneck  -7.536530018 -12.89050007 -9.82242012
upperneck  13.39789963 -17.53679848 9.928170204
head  7.083300114 -8.163169861 3.048690081
lclavicle  0 -4.497500157e-015 -2.743230041e-014
lhumerus  -48.29059982 29.2866993 64.49539948
lradius  0.006620147731 -6.507048965e-006 30.17490005
lwrist  4.824992743e-007 -3.790274832e-007 -28.23620033
lhand  -3.517123929e-031 -36.9070015 -10.66629982
lfingers  90 7.125020027 -90
lthumb  94.81748962 -25.50201416 101.075737
rclavicle  0 -4.497500157e-015 -2.743230041e-014
rhumerus  -59.22419739 -42.60390091 -45.16640472
rradius  -5.16745672e-007 2.214343908e-008 34.77500153
rwrist  -2.867388866e-005 0.1017204151 -141.0610046
rhand  -3.023583389e-031 -2.749979973 -7.59059
rfingers  -90 -7.125020027 -90
rthumb  -86.56258392 -8.057789803 -66.80391693
rfemur  -11.35466003 16.05091476 13.00258064
rtibia  -0.3108411431 -0.7821732163 18.92117882
rfoot  1.173788667 -21.44163704 -35.56876373
rtoes  4.117510796 19.59087563 -102.1185913
lfemur  -6.428632259 -15.97455788 -20.67000389
ltibia  3.79324007 -0.2447418571 12.2607336
lfoot  0.5149670243 -23.63220787 36.66399384
ltoes  -8.695964813 -18.08067894 -116.2349777
6
root  34.83566825 36.54948557 -14.46859255 9.015049934 -4.962801933 3.120884418
lowerback  -8.272179604 -0.6808563471 -0.4571761489
upperback  -3.871649981 -0.4424830079 -3.046099901
thorax  0.6126189828 -0.09095554799 -2.924429893
lowerneck  -7.534279823 -12.90989971 -9.8269701
upperneck  13.43280029 -17.56620026 9.935500145
head  7.098320007 -8.175180435 3.047199965
lclavicle  0 -4.497500157e-015 -2.743230041e-014
lhumerus  -48.3022995 29.25349998 64.4763031
lradius  0.006620147731 -6.507048965e-006 30.19120026
lwrist  4.824992743e-007 -3.790274832e-007 -28.16539955
lhand  -3.512950307e-031 -36.9109993 -10.7159996
lfingers  90 7.125020027 -90
lthumb  94.82991791 -25.55066681 101.0844879
rclavicle  0 -4.497500157e-015 -2.743230041e-014
rhumerus  -59.14639664 -42.46070099 -45.31240463
rradius  -5.16745672e-007 2.214343908e-008 34.82770157
rwrist  -2.867388866e-005 0.1017204151 -141.4660034
rhand  -3.019827421e-031 -2.671809912 -7.647109985
rfingers  -90 -7.125020027 -90
rthumb  -86.57081604 -8.009922981 -66.73094177
rfemur  -11.3325758 16.01963234 12.99240971
rtibia  -0.3117877245 -0.8062081337 18.89853668
rfoot  1.190073013 -21.47131348 -35.52759552
rtoes  4.12737751 19.5926342 -102.1480255
lfemur  -6.426681042 -15.98459911 -20.68848801
ltibia  3.799092054 -0.2594684958 12.27420998
lfoot  0.535092175 -23.61694145 36.69989777
ltoes  -8.660381317 -18.09730721 -116.1203766
7
root  34.83607074 36.54952162 -14.4684754 9.00858593 -4.967867374 3.136008263
lowerback  -8.280599594 -0.6865819693 -0.4497216344
upperback  -3.878609896 -0.4434059858 -3.060410023
thorax  0.6097810268 -0.09095554799 -2.943380117
lowerneck  -7.540999889 -12.9314003 -9.873410225
upperneck  13.47140026 -17.59859848 9.975839615
head  7.123439789 -8.187789917 3.060549974
lclavicle  0 -4.497500157e-015 -2.743230041e-014
lhumerus  -48.30110168 29.26569939 64.44879913
lradius  0.006620147731 -6.507048965e-006 30.2105999
lwrist  4.824992743e-007 -3.790274832e-007 -28.10169983
lhand  -3.517571641e-031 -36.89220047 -10.66300011
lfingers  90 7.125020027 -90
lthumb  94.80984497 -25.49939346 101.0595398
rclavicle  0 -4.497500157e-015 -2.743230041e-014
rhumerus  -59.07610321 -42.39799881 -45.43699646
rradius  -5.16745672e-007 2.214343908e-008 34.96160126
rwrist  -2.867388866e-005 0.1017204151 -141.3970032
rhand  -3.011435467e-031 -2.630179882 -7.772580147
rfingers  -90 -7.125020027 -90
rthumb  -86.61331177 -7.896958351 -66.69737244
rfemur  -11.3130846 15.99493504 12.97871017
rtibia  -0.3139393032 -0.8381167054 18.88452148
rfoot  1.195050836 -21.52692986 -35.50593567
rtoes  4.099939346 19.59425926 -102.066185
lfemur  -6.406483173 -16.00854874 -20.71594048
ltibia  3.824713707 -0.2664675117 12.25518322
lfoot  0.5575910211 -23.60285759 36.74463272
ltoes  -8.683215141 -18.08664703 -116.1939011
8
root  34.8375005 36.54977693 -14.46817353 8.996949196 -4.974616051 3.140217066
lowerback  -8.280099869 -0.6926820278 -0.4614827633
upperback  -3.889290094 -0.448913008 -3.071269989
thorax  0.5982159972 -0.09095554799 -2.948470116
lowerneck  -7.541200161 -12.95790005 -9.942139626
upperneck  13.5007 -17.63879776 10.04030037
head  7.14966011 -8.203800201 3.083950043
lclavicle  0 -4.497500157e-015 -2.743230041e-014
lhumerus  -48.30220032 29.25699997 64.44020081
lradius  0.006620147731 -6.507048965e-006 30.23940086
lwrist  4.824992743e-007 -3.790274832e-007 -28.06419945
lhand  -3.516909485e-031 -36.89910126 -10.67000008
lfingers  90 7.125020027 -90
lthumb  94.81459045 -25.50599289 101.0676346
rclavicle  0 -4.497500157e-015 -2.743230041e-014
rhumerus  -58.94960022 -42.34159851 -45.54570007
rradius  -5.16745672e-007 2.214343908e-008 34.98989868
rwrist  -2.867388866e-005 0.1017204151 -141.4880066
rhand  -3.003606158e-031 -2.493170023 -7.89027977
rfingers  -90 -7.125020027 -90
rthumb  -86.63577271 -7.796224117 -66.57039642
rfemur  -11.26280212 15.94464684 12.966362
rtibia  -0.302226603 -0.8804163933 18.82263947
rfoot  1.216361761 -21.59032822 -35.47435379
rtoes  4.101466179 19.59563446 -102.0707397
lfemur  -6.431155682 -16.08231544 -20.71783638
ltibia  3.800801516 -0.3114212453 12.32777691
lfoot  0.5721955299 -23.54777527 36.78728485
ltoes  -8.703418732 -18.07718468 -116.2589951
